TITLE "Transistor Blast [disc 2] Studio Sessions"
PERFORMER "XTC"
REM DATE "1996"
REM DISCID 9F0BB90D
FILE "XTC - Transistor Blast [disc 2] Studio Sessions.flac" WAVE
  TRACK 01 AUDIO
    TITLE "No Thugs In Our House"
    PERFORMER "XTC"
    INDEX 00 00:00:00
    INDEX 01 00:00:30
  TRACK 02 AUDIO
    TITLE "One Of The Millions"
    PERFORMER "XTC"
    INDEX 01 05:24:74
  TRACK 03 AUDIO
    TITLE "Real By Reel"
    PERFORMER "XTC"
    INDEX 01 09:51:16
  TRACK 04 AUDIO
    TITLE "The Meeting Place"
    PERFORMER "XTC"
    INDEX 01 13:40:06
  TRACK 05 AUDIO
    TITLE "Meccanic Dancing"
    PERFORMER "XTC"
    INDEX 01 16:48:69
  TRACK 06 AUDIO
    TITLE "Poor Skeleton Steps Out"
    PERFORMER "XTC"
    INDEX 01 19:25:03
  TRACK 07 AUDIO
    TITLE "Into The Atom Age"
    PERFORMER "XTC"
    INDEX 01 22:52:42
  TRACK 08 AUDIO
    TITLE "The Rhythm"
    PERFORMER "XTC"
    INDEX 01 25:20:08
  TRACK 09 AUDIO
    TITLE "This World Over"
    PERFORMER "XTC"
    INDEX 01 28:15:38
  TRACK 10 AUDIO
    TITLE "Snowman"
    PERFORMER "XTC"
    INDEX 01 32:48:26
  TRACK 11 AUDIO
    TITLE "Danceband"
    PERFORMER "XTC"
    INDEX 01 37:30:58
  TRACK 12 AUDIO
    TITLE "Making Plans For Nigel"
    PERFORMER "XTC"
    INDEX 01 40:11:56
  TRACK 13 AUDIO
    TITLE "Jason And The Argonauts"
    PERFORMER "XTC"
    INDEX 01 44:18:36
